<svg height="46.103" viewBox="0 0 46.007 46.103" width="46.007" xmlns="http://www.w3.org/2000/svg" xmlns:xlink="http://www.w3.org/1999/xlink"><linearGradient id="a" gradientUnits="objectBoundingBox" x1=".5" x2=".5" y2="1"><stop offset="0" stop-color="#615cfd"/><stop offset="1" stop-color="#d465ef"/></linearGradient><path d="m46.529 1.534a1.514 1.514 0 0 0 -1.529-1.534h-42.561a1.923 1.923 0 0 0 -1.917 1.917v29.521h46.007z" fill="#40596b" transform="translate(-.522)"/><path d="m.522 342.727v3.642a1.923 1.923 0 0 0 1.917 1.917h42.173a1.923 1.923 0 0 0 1.917-1.917v-3.642z" fill="#cdd6e0" transform="translate(-.522 -311.289)"/><ellipse cx="41.885" cy="34.218" fill="#f2f2f2" rx="1.054" ry="1.054"/><ellipse cx="37.668" cy="34.218" fill="#f2f2f2" rx="1.054" ry="1.054"/><path d="m165.978 408.986h-19.17l2.109-4.217.575-1.438h13.8l.575 1.438z" fill="#acb3ba" transform="translate(-133.389 -366.334)"/><path d="m134.391 464.98h-22.429a1.725 1.725 0 1 0 0 3.451h22.428a1.725 1.725 0 1 0 0-3.451z" fill="#cdd6e0" transform="translate(-100.173 -422.328)"/><path d="m184.748 404.769h-14.948l.575-1.438h13.8z" fill="#9eacb7" transform="translate(-154.269 -366.334)"/><path d="m3.067 2.78h39.873v25.783h-39.873z" fill="#fff"/><g fill="#cdd6e0"><path d="m23.195 6.614h14.761v2.396h-14.761z"/><path d="m23.195 10.64h14.761v2.396h-14.761z"/><path d="m8.147 18.499h14.761v2.396h-14.761z"/><path d="m8.147 22.429h14.761v2.396h-14.761z"/></g><path d="m0 0h13.131v8.339h-13.131z" fill="url(#a)" transform="translate(7.955 5.655)"/><path d="m24.921 17.54h13.131v8.339h-13.131z" fill="#00d363"/></svg>