<svg height="46.007" viewBox="0 0 45.912 46.007" width="45.912" xmlns="http://www.w3.org/2000/svg" xmlns:xlink="http://www.w3.org/1999/xlink"><linearGradient id="a" gradientUnits="objectBoundingBox" x1=".5" x2=".5" y2="1"><stop offset="0" stop-color="#615cfd"/><stop offset="1" stop-color="#d465ef"/></linearGradient><path d="m46.433 23v1.25a23.88 23.88 0 0 1 -2.2 8.722 23.12 23.12 0 1 1 2.2-9.972z" fill="url(#a)" transform="translate(-.522)"/><ellipse cx="22.908" cy="23.003" fill="#fff" rx="18.211" ry="18.211"/><circle cx="22.908" cy="23.004" fill="#ff7058" r="13.515"/><ellipse cx="22.908" cy="23.003" fill="#fff" rx="8.722" ry="8.722"/><ellipse cx="22.908" cy="23.004" fill="#ff7058" rx="3.93" ry="3.93"/><path d="m259.143 235.06a23.881 23.881 0 0 1 -2.2 8.722l-3.355-.863-.958-3.259-16.773-4.5a1.547 1.547 0 1 1 .863-2.971l16.678 4.5 2.492-2.4z" fill="#334a5e" opacity=".2" transform="translate(-213.231 -210.81)"/><path d="m250.294 94.995a1.624 1.624 0 0 0 -2.2 0l-12.556 12.556a1.624 1.624 0 0 0 0 2.2 1.624 1.624 0 0 0 2.2 0l12.556-12.551a1.624 1.624 0 0 0 0-2.205z" fill="#40596b" transform="translate(-213.584 -85.889)"/><path d="m371.048 9.356-5.655 5.559-1.246-5.08 5.653-5.655z" fill="#84dbff" transform="translate(-330.792 -3.797)"/><path d="m382.907 67.409 5.559-5.559-5.08-1.246-5.655 5.559z" fill="#54c0eb" transform="translate(-343.13 -55.045)"/></svg>