<svg height="46.103" viewBox="0 0 46.091 46.103" width="46.091" xmlns="http://www.w3.org/2000/svg" xmlns:xlink="http://www.w3.org/1999/xlink"><linearGradient id="a" gradientUnits="objectBoundingBox" x1=".5" x2=".5" y2="1"><stop offset="0" stop-color="#615cfd"/><stop offset="1" stop-color="#d465ef"/></linearGradient><path d="m315.6 312.588-3.071 3.071-3.167-3.167 3.071-3.071z" fill="#334a5e" transform="translate(-280.949 -281.001)"/><path d="m332.315 332.38a4.692 4.692 0 0 1 -6.622 0l-9.021-9.021 6.622-6.622 9.021 9.021a4.692 4.692 0 0 1 0 6.622z" fill="#ffd15c" transform="translate(-287.591 -287.644)"/><path d="m31.063 5.291a18.16 18.16 0 0 0 -25.625 0 17.958 17.958 0 0 0 -.1 25.529 18.12 18.12 0 0 0 25.725-25.529z" fill="url(#a)" transform="translate(-.064)"/><path d="m67.09 67.512a14.221 14.221 0 0 1 -20.058-.1 14.019 14.019 0 0 1 .1-19.962 14.15 14.15 0 1 1 19.958 20.062z" fill="#f2f2f2" transform="translate(-38.969 -39.38)"/><path d="m103.1 103.516a10.247 10.247 0 1 1 0-14.492 10.2 10.2 0 0 1 0 14.492z" fill="#84dbff" transform="translate(-77.758 -78.168)"/><path d="m131.611 131.676a7.126 7.126 0 1 1 0-10.077 7.125 7.125 0 0 1 0 10.077z" fill="#54c0eb" transform="translate(-108.481 -108.535)"/><ellipse cx="12.407" cy="14.686" fill="#fff" rx="1.536" ry="1.536"/><ellipse cx="14.69" cy="16.162" fill="#fff" rx=".768" ry=".768"/><path d="m322.344 316.735-6.718 6.526 2.783 2.783 6.622-6.622z" fill="#f8b64c" transform="translate(-286.642 -287.643)"/></svg>