<svg height="46.103" viewBox="0 0 46.007 46.103" width="46.007" xmlns="http://www.w3.org/2000/svg" xmlns:xlink="http://www.w3.org/1999/xlink"><linearGradient id="a" gradientUnits="objectBoundingBox" x1=".5" x2=".5" y2="1"><stop offset="0" stop-color="#615cfd"/><stop offset="1" stop-color="#d465ef"/></linearGradient><path d="m31.385 12.939a14.435 14.435 0 0 0 -1.342-3.355l1.15-2.684-4.026-3.93-2.684 1.15a12.931 12.931 0 0 0 -3.354-1.34l-.958-2.78h-5.655l-1.054 2.78a14.435 14.435 0 0 0 -3.355 1.342l-2.684-1.151-3.93 3.929 1.15 2.684a12.931 12.931 0 0 0 -1.343 3.355l-2.778 1.055v5.655l2.778 1.051a14.435 14.435 0 0 0 1.342 3.355l-1.15 2.684 4.026 3.93 2.684-1.15a12.931 12.931 0 0 0 3.355 1.342l1.054 2.78h5.559l1.054-2.78a14.435 14.435 0 0 0 3.355-1.342l2.684 1.15 4.026-3.93-1.15-2.684a12.931 12.931 0 0 0 1.342-3.355l2.78-1.054v-5.652zm-14.085 10.736a6.9 6.9 0 1 1 6.9-6.9 6.872 6.872 0 0 1 -6.9 6.9z" fill="url(#a)" transform="translate(-.522)"/><path d="m116.14 115.618a6.826 6.826 0 0 1 -9.681 0l-2.492 2.492a10.37 10.37 0 1 0 14.665-14.665l-2.492 2.492a6.826 6.826 0 0 1 0 9.681z" fill="#54c0eb" transform="translate(-94.478 -93.956)"/><path d="m74.072 73.55a10.413 10.413 0 0 0 0 14.665l2.492-2.492a6.845 6.845 0 1 1 9.681-9.681l2.492-2.492a10.413 10.413 0 0 0 -14.665 0z" fill="#54c0eb" transform="translate(-64.583 -64.061)"/><path d="m213.334 344.892a4.653 4.653 0 0 0 0-1.629l.958-.958-.958-2.4h-1.342a13.01 13.01 0 0 0 -1.15-1.15v-1.342l-2.4-.958-.958.958a4.651 4.651 0 0 0 -1.629 0l-.958-.958-2.4.958v1.342a13 13 0 0 0 -1.15 1.15h-1.342l-.958 2.4.958.958a4.651 4.651 0 0 0 0 1.629l-.958.958.958 2.4h1.342a13.012 13.012 0 0 0 1.15 1.15v1.342l2.4.958.958-.958a4.651 4.651 0 0 0 1.629 0l.958.958 2.4-.958v-1.342a13.014 13.014 0 0 0 1.15-1.15h1.342l.958-2.4zm-7.668 2.013a3.1 3.1 0 1 1 4.026-1.725 3.065 3.065 0 0 1 -4.025 1.72z" fill="#4cdbc4" transform="translate(-180.842 -305.594)"/><path d="m350.215 208.011a4.651 4.651 0 0 0 0-1.629l.958-.958-.958-2.4h-1.342a13.012 13.012 0 0 0 -1.15-1.15v-1.342l-2.4-.958-.958.958a4.652 4.652 0 0 0 -1.629 0l-.958-.958-2.4.958v1.342a13.011 13.011 0 0 0 -1.15 1.15h-1.342l-.958 2.4.958.958a4.654 4.654 0 0 0 0 1.629l-.958.958.958 2.4h1.342a13.011 13.011 0 0 0 1.15 1.15v1.342l2.4.958.958-.958a4.653 4.653 0 0 0 1.629 0l.958.958 2.4-.958v-1.342a13.018 13.018 0 0 0 1.15-1.15h1.342l.958-2.4zm-7.764 2.109a3.1 3.1 0 1 1 4.026-1.725 3 3 0 0 1 -4.025 1.724z" fill="#ff7058" transform="translate(-305.167 -181.269)"/></svg>