<svg height="41.999" viewBox="0 0 39.592 41.999" width="39.592" xmlns="http://www.w3.org/2000/svg"><path d="m45.875 26.982a7.516 7.516 0 0 0 -5.948 2.93l-11.537-6.445a7.533 7.533 0 0 0 .419-2.477 7.369 7.369 0 0 0 -.427-2.485l11.528-6.436a7.5 7.5 0 1 0 -1.552-4.561 7.331 7.331 0 0 0 .427 2.485l-11.52 6.437a7.5 7.5 0 1 0 .017 9.113l11.529 6.445a7.5 7.5 0 1 0 7.064-5.006zm0-24.619a5.154 5.154 0 1 1 -5.154 5.154 5.158 5.158 0 0 1 5.154-5.154zm-24.558 23.782a5.154 5.154 0 1 1 5.154-5.154 5.158 5.158 0 0 1 -5.154 5.154zm24.558 13.491a5.154 5.154 0 1 1 5.154-5.154 5.158 5.158 0 0 1 -5.154 5.154z" fill="#00d363" transform="translate(-13.8)"/></svg>