<svg height="42.065" viewBox="0 0 42.065 42.065" width="42.065" xmlns="http://www.w3.org/2000/svg"><g fill="#615cfd"><path d="m161.554 36.722a13.309 13.309 0 1 1 -7.969 14.885 13.309 13.309 0 0 1 7.969-14.885zm-5.984 16.848a11.942 11.942 0 1 0 19.49-13 11.942 11.942 0 0 0 -19.49 13z" transform="translate(-150.478 -32.859)"/><path d="m4.726 5.727a16.136 16.136 0 0 1 24.211 21.235l1.239 1.238a1.4 1.4 0 0 1 1.35.357l8.931 8.931a1.4 1.4 0 0 1 .357 1.35l.635.635a2.1 2.1 0 0 1 0 2.974l-.5-.5.494.5a2.1 2.1 0 0 1 -2.974 0l-.635-.635a1.363 1.363 0 0 1 -1.35-.358l-8.931-8.931a1.4 1.4 0 0 1 -.357-1.35l-1.239-1.239a16.136 16.136 0 0 1 -21.231-24.207zm34.739 35.731a.717.717 0 0 0 .991 0 .7.7 0 0 0 0-.991l-.5-.5-.993.993zm-1.985-.993.993-.993.992-.992-6.947-6.947-1.986 1.985zm-7.938-7.938 1.986-1.985-.993-.993-.992.992-.993.993zm-1.488-2.481.5-.5.5-.5-1.018-1.018c-.159.173-.3.354-.472.522s-.349.313-.522.471zm-17.545.713a14.734 14.734 0 1 0 -9.1-13.613 14.734 14.734 0 0 0 9.1 13.615z" transform="translate(0 -1.001)"/><path d="m216.843 109.143a1.4 1.4 0 0 1 1.4 1.4v3.5h1.4v-6.308a1.4 1.4 0 0 1 1.4-1.4h2.1a1.4 1.4 0 0 1 1.4 1.4v6.308h1.4v-9.112a1.4 1.4 0 0 1 1.4-1.4h2.1a1.4 1.4 0 0 1 1.4 1.4v9.812a.7.7 0 0 1 -.7.7h-16.103a.7.7 0 0 1 -.7-.7v-4.205a1.4 1.4 0 0 1 1.4-1.4zm10.513 4.906h2.1v-9.111h-2.1zm-6.308 0h2.1v-6.308h-2.1zm-6.308 0h2.1v-3.5h-2.1z" transform="translate(-206.319 -95.114)"/><path d="m384.71 265.67h.7a.7.7 0 0 1 0 1.4h-.7a.7.7 0 0 1 0-1.4z" transform="translate(-375.587 -243.931)"/><path d="m307.91 265.67h.7a.7.7 0 0 1 0 1.4h-.7a.7.7 0 0 1 0-1.4z" transform="translate(-292.479 -243.931)"/><path d="m231.11 265.67h.7a.7.7 0 0 1 0 1.4h-.7a.7.7 0 1 1 0-1.4z" transform="translate(-209.371 -243.931)"/></g></svg>