<svg height="41.999" viewBox="0 0 44.383 41.999" width="44.383" xmlns="http://www.w3.org/2000/svg"><g fill="#ff008c"><path d="m123.264 291.193a.867.867 0 1 0 -1.184-.317.867.867 0 0 0 1.184.317zm0 0" transform="translate(-111.391 -264.473)"/><path d="m8.321 53.121 4.366 7.562a3.467 3.467 0 1 0 6.006-3.467l-2.6-4.505 2.252-1.3a.867.867 0 0 0 .317-1.184l-1.127-1.952 16.6-3.257a2.6 2.6 0 0 0 2.108-3.9l-2.881-4.99 1.841-2.789a.867.867 0 0 0 .027-.911l-1.734-3a.869.869 0 0 0 -.796-.428l-3.335.2-3.2-5.54a2.578 2.578 0 0 0 -2.22-1.3h-.035a2.578 2.578 0 0 0 -2.19 1.2l-11.32 14.42-7.362 4.25a6.068 6.068 0 0 0 5.286 10.89zm8.87 4.962a1.734 1.734 0 0 1 -3 1.733l-4.338-7.508 3-1.734zm-1.966-6.874-.867-1.5 1.5-.867.867 1.5zm17.041-20.45 1.2 2.075-1.066 1.617-2.07-3.577zm-9.1-6.253a.867.867 0 0 1 1.491.017l10.087 17.464a.867.867 0 0 1 -.729 1.3 3.182 3.182 0 0 0 -.475.081l-10.666-18.475c.226-.287.252-.315.297-.388zm-1.446 1.857 10.021 17.357-15.124 2.966-4.6-7.965zm-19.405 23.29a4.331 4.331 0 0 1 1.585-5.921l6.757-3.9 4.334 7.507-6.757 3.9a4.34 4.34 0 0 1 -5.919-1.586zm0 0" transform="translate(0 -20.418)"/><path d="m48.17 310.006a.867.867 0 0 0 -1.184-.317l-1.5.867a.868.868 0 0 1 -1.184-.317.867.867 0 1 0 -1.5.867 2.6 2.6 0 0 0 3.552.952l1.5-.867a.867.867 0 0 0 .316-1.185zm0 0" transform="translate(-38.982 -282.737)"/><path d="m441.551 42.591-4.83 2.688a.867.867 0 1 0 .843 1.515l4.83-2.688a.867.867 0 0 0 -.843-1.515zm0 0" transform="translate(-398.455 -38.798)"/><path d="m444.5 137.549-3.349-.9a.867.867 0 1 0 -.449 1.674l3.35.9a.867.867 0 1 0 .448-1.674zm0 0" transform="translate(-401.915 -124.778)"/><path d="m384.421.643-.9 3.35a.867.867 0 0 0 1.675.449l.9-3.35a.867.867 0 1 0 -1.674-.449zm0 0" transform="translate(-350.249)"/></g></svg>